<svg width="116" height="116" viewBox="0 0 116 116" fill="none" xmlns="http://www.w3.org/2000/svg">
<g opacity="0.65">
<rect x="115.183" y="60.7049" width="80.418" height="80.418" rx="40.209" transform="rotate(138.024 115.183 60.7049)" stroke="white"/>
<path d="M48.2557 63V53.5455H51.3072C51.9781 53.5455 52.5382 53.667 52.9876 53.9102C53.44 54.1502 53.7801 54.4841 54.0078 54.9119C54.2386 55.3366 54.354 55.8245 54.354 56.3754C54.354 56.9263 54.2386 57.4125 54.0078 57.8342C53.7801 58.2558 53.4415 58.5851 52.9922 58.8221C52.5429 59.0591 51.9858 59.1776 51.321 59.1776H48.7219V58.3881H51.2979C51.7904 58.3881 52.1997 58.3066 52.5259 58.1435C52.8552 57.9804 53.0999 57.748 53.2599 57.4464C53.4231 57.1448 53.5046 56.7878 53.5046 56.3754C53.5046 55.9629 53.4231 55.6029 53.2599 55.2951C53.0968 54.9843 52.8506 54.7442 52.5213 54.5749C52.1951 54.4057 51.7827 54.321 51.2841 54.321H49.119V63H48.2557ZM52.4244 58.7344L54.7511 63H53.7539L51.4503 58.7344H52.4244ZM59.0767 63.1477C58.415 63.1477 57.8426 62.9938 57.3594 62.6861C56.8762 62.3752 56.5022 61.9459 56.2376 61.3981C55.976 60.8472 55.8452 60.2132 55.8452 59.4961C55.8452 58.7821 55.976 58.1481 56.2376 57.5941C56.5022 57.037 56.867 56.6016 57.3317 56.2876C57.7995 55.9706 58.3396 55.8121 58.9521 55.8121C59.3368 55.8121 59.7076 55.8829 60.0646 56.0245C60.4216 56.163 60.7417 56.3769 61.0249 56.6662C61.3111 56.9524 61.5373 57.314 61.7035 57.7511C61.8697 58.185 61.9528 58.699 61.9528 59.293V59.6992H56.413V58.9744H61.1126C61.1126 58.5189 61.0202 58.1096 60.8356 57.7464C60.654 57.3802 60.4001 57.0909 60.0739 56.8786C59.7507 56.6662 59.3768 56.56 58.9521 56.56C58.5027 56.56 58.1072 56.68 57.7656 56.9201C57.424 57.1602 57.1563 57.4772 56.9624 57.8711C56.7715 58.265 56.6746 58.6959 56.6715 59.1637V59.5977C56.6715 60.1609 56.7685 60.6533 56.9624 61.0749C57.1593 61.4935 57.4379 61.8182 57.7979 62.049C58.158 62.2798 58.5843 62.3952 59.0767 62.3952C59.4122 62.3952 59.7061 62.3429 59.9585 62.2383C60.2139 62.1336 60.4278 61.9936 60.6001 61.8182C60.7756 61.6397 60.9079 61.4442 60.9972 61.2319L61.7773 61.4858C61.6696 61.7843 61.4927 62.0598 61.2464 62.3121C61.0033 62.5645 60.6986 62.7676 60.3324 62.9215C59.9692 63.0723 59.5507 63.1477 59.0767 63.1477ZM65.7441 63.1616C65.3163 63.1616 64.9254 63.0785 64.5715 62.9123C64.2175 62.743 63.9359 62.4999 63.7267 62.1829C63.5174 61.8628 63.4127 61.475 63.4127 61.0195C63.4127 60.6687 63.4789 60.3732 63.6112 60.1332C63.7436 59.8931 63.9313 59.6961 64.1744 59.5423C64.4176 59.3884 64.7053 59.2668 65.0377 59.1776C65.3701 59.0883 65.7364 59.0191 66.1365 58.9698C66.5335 58.9206 66.8689 58.8775 67.1428 58.8406C67.4198 58.8036 67.6307 58.7451 67.7753 58.6651C67.92 58.5851 67.9923 58.4558 67.9923 58.2773V58.1112C67.9923 57.628 67.8476 57.2479 67.5583 56.9709C67.2721 56.6908 66.8597 56.5508 66.3211 56.5508C65.8102 56.5508 65.3932 56.6631 65.07 56.8878C64.75 57.1125 64.5253 57.3771 64.396 57.6818L63.6159 57.4002C63.7759 57.0124 63.9975 56.7031 64.2806 56.4723C64.5638 56.2384 64.8808 56.0707 65.2316 55.9691C65.5825 55.8645 65.9379 55.8121 66.298 55.8121C66.5689 55.8121 66.8505 55.8475 67.1428 55.9183C67.4383 55.9891 67.7122 56.1122 67.9646 56.2876C68.2169 56.46 68.4216 56.7016 68.5786 57.0124C68.7355 57.3202 68.814 57.7111 68.814 58.185V63H67.9923V61.8782H67.9415C67.843 62.0875 67.6968 62.2906 67.5029 62.4876C67.309 62.6845 67.0659 62.8461 66.7735 62.9723C66.4811 63.0985 66.138 63.1616 65.7441 63.1616ZM65.8548 62.4091C66.2919 62.4091 66.6704 62.3121 66.9905 62.1183C67.3106 61.9244 67.5568 61.6674 67.7291 61.3473C67.9046 61.0241 67.9923 60.6687 67.9923 60.2809V59.256C67.9307 59.3145 67.8276 59.3668 67.683 59.413C67.5414 59.4592 67.3767 59.5007 67.189 59.5376C67.0044 59.5715 66.8197 59.6007 66.635 59.6254C66.4504 59.65 66.2842 59.6715 66.1365 59.69C65.7364 59.7392 65.3947 59.8162 65.1116 59.9208C64.8285 60.0254 64.6115 60.1701 64.4607 60.3548C64.3099 60.5363 64.2345 60.7702 64.2345 61.0565C64.2345 61.4873 64.3883 61.8213 64.6961 62.0582C65.0039 62.2921 65.3901 62.4091 65.8548 62.4091ZM73.5528 63.1477C72.9711 63.1477 72.4618 62.9938 72.0248 62.6861C71.5877 62.3783 71.2461 61.949 70.9999 61.3981C70.7568 60.8472 70.6352 60.2055 70.6352 59.473C70.6352 58.7436 70.7568 58.105 70.9999 57.5572C71.2461 57.0063 71.5893 56.5785 72.0294 56.2738C72.4695 55.966 72.9819 55.8121 73.5667 55.8121C73.9975 55.8121 74.3561 55.8891 74.6423 56.043C74.9285 56.1938 75.1578 56.3815 75.3302 56.6062C75.5025 56.8308 75.6364 57.0494 75.7318 57.2617H75.8057V53.5455H76.632V63H75.8287V61.6843H75.7318C75.6364 61.8997 75.501 62.1213 75.3256 62.3491C75.1501 62.5737 74.9178 62.763 74.6285 62.9169C74.3422 63.0708 73.9837 63.1477 73.5528 63.1477ZM73.6498 62.3952C74.1083 62.3952 74.4992 62.2706 74.8224 62.0213C75.1455 61.7689 75.3917 61.4227 75.561 60.9826C75.7333 60.5394 75.8195 60.0316 75.8195 59.4592C75.8195 58.8929 75.7349 58.3928 75.5656 57.9588C75.3963 57.5218 75.1501 57.1802 74.827 56.9339C74.5038 56.6847 74.1114 56.56 73.6498 56.56C73.1758 56.56 72.7757 56.6893 72.4495 56.9478C72.1263 57.2032 71.8801 57.5495 71.7108 57.9865C71.5447 58.4235 71.4616 58.9144 71.4616 59.4592C71.4616 60.0101 71.5462 60.5071 71.7155 60.9503C71.8847 61.3935 72.1309 61.7459 72.4541 62.0075C72.7803 62.266 73.1789 62.3952 73.6498 62.3952Z" fill="white"/>
<path d="M33.081 54.7725L41.3984 64.0176" stroke="white" stroke-width="1.5" stroke-linecap="round" stroke-linejoin="round"/>
<path d="M38.9355 55.082L33.0814 54.7728L32.7721 60.627" stroke="white" stroke-width="1.5" stroke-linecap="round" stroke-linejoin="round"/>
</g>
</svg>
